<svg width="210" height="217" viewBox="0 0 210 217" fill="none" xmlns="http://www.w3.org/2000/svg">
<g clip-path="url(#clip0_103_688)">
<path d="M104.096 195.48C158.133 195.48 201.939 151.721 201.939 97.7402C201.939 43.7598 158.133 0 104.096 0C50.0595 0 6.25391 43.7598 6.25391 97.7402C6.25391 151.721 50.0595 195.48 104.096 195.48Z" fill="#E1EDA8"/>
<path d="M62.2637 145.777C64.0704 164.52 78.5244 179.514 96.8699 182.569V217H153.574V183.124V157.023V145.777H62.2637Z" fill="#E6888E"/>
<path d="M124.944 153.413H68.3789C61.7078 153.413 56.2876 147.999 56.2876 141.335V18.604C56.2876 11.9399 61.7078 6.52527 68.3789 6.52527H124.944C131.615 6.52527 137.035 11.9399 137.035 18.604V141.473C137.035 147.999 131.615 153.413 124.944 153.413Z" fill="#786787"/>
<path d="M59.4844 136.892V20.6865C59.4844 15.6884 63.5148 11.6622 68.5181 11.6622H124.805C129.809 11.6622 133.839 15.6884 133.839 20.6865V136.753C133.839 141.751 129.809 145.777 124.805 145.777H68.5181C63.5148 145.777 59.4844 141.751 59.4844 136.892Z" fill="white"/>
<path d="M110.907 118.149H81.4433C78.2468 118.149 75.7451 115.65 75.7451 112.457C75.7451 109.264 78.2468 106.765 81.4433 106.765H110.907C114.104 106.765 116.605 109.264 116.605 112.457C116.744 115.511 114.104 118.149 110.907 118.149Z" fill="#869639"/>
<path d="M106.599 19.2982H86.7244C85.6125 19.2982 84.6396 18.3263 84.6396 17.2156C84.6396 16.1049 85.6125 15.1331 86.7244 15.1331H106.46C107.571 15.1331 108.544 16.1049 108.544 17.2156C108.683 18.3263 107.71 19.2982 106.599 19.2982Z" fill="#786787"/>
<path d="M88.253 47.2041L89.6428 46.2322C90.7547 45.3992 92.2835 46.2322 92.2835 47.6206V49.2866C92.2835 49.842 92.5614 50.3973 92.9784 50.675L94.3682 51.6468C95.48 52.4798 95.2021 54.1459 93.8123 54.5624L92.1445 55.1177C91.5886 55.2565 91.1716 55.673 91.0327 56.2284L90.4767 57.8944C90.0598 59.1439 88.253 59.4216 87.5581 58.3109L86.5853 56.9226C86.3073 56.5061 85.7514 56.2284 85.1955 56.2284H83.5277C82.1379 56.2284 81.304 54.7012 82.1379 53.5905L83.1107 52.2022C83.3887 51.7856 83.5277 51.2303 83.3887 50.675L82.8328 49.0089C82.4158 47.7594 83.6667 46.5099 84.9175 46.9264L86.5853 47.4817C87.1412 47.6206 87.8361 47.4817 88.253 47.2041Z" fill="#FFC94F"/>
<path d="M107.433 41.7895L107.849 41.0953C108.266 40.54 109.1 40.6788 109.239 41.2342L109.517 42.0672C109.656 42.3448 109.795 42.4837 110.073 42.6225L110.907 42.9002C111.602 43.039 111.741 43.872 111.185 44.2885L110.49 44.8439C110.212 44.9827 110.212 45.2604 110.212 45.5381V46.3711C110.212 47.0653 109.517 47.4818 108.961 47.0653L108.266 46.5099C107.988 46.3711 107.71 46.3711 107.572 46.3711L106.738 46.6487C106.043 46.9264 105.487 46.2322 105.626 45.6769L105.904 44.8439C106.043 44.5662 105.904 44.2885 105.765 44.1497L105.209 43.4555C104.792 42.9002 105.209 42.206 105.904 42.206H106.738C107.016 42.206 107.294 42.0672 107.433 41.7895Z" fill="#FFC94F"/>
<path d="M94.2291 32.2099L94.5071 31.238C94.785 30.405 95.7579 30.2662 96.3138 30.9603L96.8697 31.7933C97.0087 32.071 97.4257 32.2099 97.7036 32.2099H98.6765C99.5104 32.2099 99.9273 33.1817 99.5104 33.737L98.9545 34.5701C98.8155 34.8477 98.6765 35.1254 98.8155 35.5419L99.0934 36.5138C99.3714 37.3468 98.5375 38.041 97.8426 37.7633L96.8697 37.4856C96.5918 37.3468 96.1748 37.4856 95.8969 37.6244L95.063 38.1798C94.3681 38.5963 93.5342 38.1798 93.5342 37.3468V36.3749C93.5342 36.0973 93.3952 35.6807 93.1173 35.5419L92.2834 34.9866C91.5885 34.5701 91.8664 33.4594 92.5613 33.1817L93.5342 32.904C93.8122 32.7652 94.0901 32.4875 94.2291 32.2099Z" fill="#FFC94F"/>
<path d="M116.744 65.3915V72.3333H108.822C108.961 68.4459 108.822 65.6692 108.822 65.3915L106.043 65.5304C106.043 65.5304 106.182 68.3071 106.043 72.3333H98.1206V65.3915H95.341V72.3333H87.4191C87.2801 68.4459 87.4191 65.6692 87.4191 65.5304L84.6395 65.3915C84.6395 65.6692 84.5005 68.4459 84.6395 72.3333H76.7176V65.3915H73.938V74.4159C73.938 84.1343 81.5819 92.1868 91.1716 92.1868H102.568C112.019 92.1868 119.802 84.2732 119.802 74.4159V65.3915H116.744ZM116.744 75.11C116.605 76.7761 116.327 78.3033 115.771 79.6916H108.266C108.544 78.0256 108.683 76.4984 108.683 75.11H116.744ZM105.765 75.11C105.626 76.6372 105.487 78.1644 105.348 79.6916H98.1206V75.11H105.765ZM95.2021 75.11V79.6916H87.975C87.6971 78.1644 87.5581 76.4984 87.5581 75.11H95.2021ZM85.0565 79.6916H77.5515C76.9956 78.3033 76.7176 76.6372 76.5786 75.11H84.6395C84.7785 76.6372 84.9175 78.1644 85.0565 79.6916ZM78.9413 82.6072H85.4734C85.8903 84.6897 86.3073 86.7722 87.0022 88.7159C83.6666 87.7441 80.887 85.5227 78.9413 82.6072ZM90.1987 89.2713C89.3649 87.1887 88.8089 84.8285 88.392 82.6072H95.2021V89.2713H90.8936C90.7547 89.2713 90.4767 89.2713 90.1987 89.2713ZM98.1206 89.2713V82.6072H104.931C104.514 84.8285 103.958 87.1887 103.124 89.2713C102.846 89.2713 102.707 89.2713 102.429 89.2713H98.1206ZM106.321 88.7159C107.015 86.7722 107.432 84.6897 107.849 82.6072H114.381C112.436 85.5227 109.656 87.7441 106.321 88.7159Z" fill="#FFC94F"/>
<path d="M84.5004 65.2527C84.5004 65.3916 84.3614 67.0576 84.3614 69.5566H87.28C87.28 67.0576 87.28 65.5304 87.419 65.3915L84.5004 65.2527ZM116.744 65.3915V69.5566H119.524V65.3915H116.744ZM106.042 65.5304C106.042 65.5304 106.181 67.1964 106.181 69.6955H109.1C109.1 67.1964 108.961 65.6692 108.961 65.3915L106.042 65.5304ZM73.7988 69.5566H76.5784V65.3915H73.7988V69.5566ZM95.2019 69.5566H97.9815V65.3915H95.2019V69.5566Z" fill="#E09347"/>
<path d="M77.1348 78.5809L74.9111 80.5246C75.4671 82.1906 76.3009 83.579 77.2738 84.9674L79.3585 83.0237C79.2195 82.8848 79.0806 82.6072 78.9416 82.4683H80.0534L83.25 79.6916H77.5518C77.4128 79.2751 77.2738 78.9974 77.1348 78.5809ZM87.2804 69.5566L84.5008 72.0557V72.1945H84.2228L81.0263 74.9712H84.6398C84.7788 75.943 84.7788 77.0537 84.9177 78.0256L87.5584 75.6654C87.5584 75.3877 87.5584 75.11 87.5584 74.8324H88.5313L91.7278 72.0557H87.4194C87.2804 71.3615 87.2804 70.3896 87.2804 69.5566ZM116.188 78.5809C116.049 78.9974 115.91 79.4139 115.771 79.8304H110.073L113.27 82.6072H114.382C114.243 82.746 114.104 83.0237 113.965 83.1625L116.049 85.1062C117.022 83.7178 117.856 82.3295 118.412 80.6635L116.188 78.5809ZM109.1 72.3333H108.822V72.1945L106.043 69.6954C106.043 70.5285 106.043 71.3615 106.043 72.3333H101.734L104.931 75.11H105.904C105.904 75.3877 105.904 75.6654 105.904 75.943L108.544 78.3033C108.683 77.1926 108.822 76.2207 108.822 75.2489H112.436L109.1 72.3333Z" fill="#E09347"/>
<path d="M119.524 67.4741H73.7991C72.6872 67.4741 71.7144 66.5022 71.7144 65.3916C71.7144 64.2809 72.6872 63.309 73.7991 63.309H119.524C120.636 63.309 121.608 64.2809 121.608 65.3916C121.608 66.5022 120.636 67.4741 119.524 67.4741Z" fill="#FFC94F"/>
<path d="M93.6733 67.6129L75.0499 84.1343C74.077 84.9674 72.5482 84.9674 71.5754 83.8567C70.7415 82.8848 70.7415 81.3576 71.8533 80.3858L90.4767 63.8644C91.4496 63.0313 92.9784 63.0313 93.9513 64.142C94.7852 65.1139 94.7852 66.6411 93.6733 67.6129Z" fill="#FFE19C"/>
<path d="M92.1444 67.0576C92.8352 67.0576 93.3952 66.4981 93.3952 65.8081C93.3952 65.118 92.8352 64.5585 92.1444 64.5585C91.4536 64.5585 90.8936 65.118 90.8936 65.8081C90.8936 66.4981 91.4536 67.0576 92.1444 67.0576Z" fill="#786787"/>
<path d="M99.6497 67.6129L118.412 84.1343C119.385 84.9674 120.914 84.9674 121.887 83.8567C122.721 82.8848 122.721 81.3576 121.609 80.3858L102.846 63.8644C101.873 63.0313 100.345 63.0313 99.3717 64.142C98.5379 65.1139 98.5379 66.6411 99.6497 67.6129Z" fill="#FFE19C"/>
<path d="M101.178 67.0576C101.869 67.0576 102.429 66.4981 102.429 65.8081C102.429 65.118 101.869 64.5585 101.178 64.5585C100.487 64.5585 99.9272 65.118 99.9272 65.8081C99.9272 66.4981 100.487 67.0576 101.178 67.0576Z" fill="#786787"/>
<path d="M153.435 142.445C153.435 121.203 148.432 100.239 138.981 81.3576C138.564 80.5246 137.869 80.1081 136.896 80.1081H109.934C105.904 80.1081 103.402 84.412 105.348 87.8829C108.127 93.0198 112.992 96.7684 118.968 97.7402L120.913 98.0179C121.886 98.1567 122.581 98.8509 122.72 99.8228L126.195 118.01C126.334 119.121 125.917 120.093 124.805 120.509C118.829 123.008 98.8155 133.421 98.1206 158.689C98.1206 158.689 98.1206 158.689 98.1206 158.828C98.1206 159.106 98.1206 159.383 98.1206 159.8C98.1206 175.349 111.046 187.983 126.751 187.428C141.761 186.873 153.435 174.1 153.435 159.244V142.445Z" fill="#EAADA9"/>
<path d="M110.629 80.1081C110.629 80.1081 111.88 83.8567 117.578 83.8567H127.168V80.1081H110.629Z" fill="#FFE19C"/>
<path d="M69.4908 140.64L53.9249 135.087C49.8945 133.699 47.8098 129.256 49.1996 125.091C50.5894 121.065 55.0368 118.982 59.2062 120.37L74.7721 125.924C78.8025 127.312 80.8872 131.755 79.4974 135.92C78.1076 139.946 73.6602 142.168 69.4908 140.64Z" fill="#EAADA9"/>
<path d="M69.4906 124.535L50.7282 117.871C46.6977 116.483 44.613 112.04 46.0028 107.875C47.3926 103.849 51.84 101.766 56.0094 103.155L74.7718 109.819C78.8023 111.207 80.887 115.65 79.4972 119.815C78.1074 123.841 73.66 126.063 69.4906 124.535Z" fill="#EAADA9"/>
<path d="M67.823 107.736L50.8673 101.766C46.8369 100.378 44.7522 95.9354 46.142 91.7703C47.5318 87.7441 51.9792 85.6616 56.1486 87.0499L73.1042 93.0198C77.1347 94.4082 79.2194 98.8509 77.8296 103.016C76.3008 107.181 71.8534 109.264 67.823 107.736Z" fill="#EAADA9"/>
<path d="M63.6534 90.2431L43.0843 78.7198C39.3318 76.6372 37.942 71.9168 40.0267 68.1682C42.1114 64.4197 46.8368 63.0313 50.5892 65.1139L71.1584 76.6372C74.9109 78.7198 76.3007 83.4402 74.216 87.1887C72.1313 90.9373 67.4059 92.3256 63.6534 90.2431Z" fill="#EAADA9"/>
<path d="M62.2638 85.9392C62.2638 85.9392 60.735 82.0518 62.6807 79.6916C64.6265 77.3314 67.6841 77.3314 67.6841 77.3314L73.6602 80.6635C73.6602 80.6635 69.0739 83.8567 68.5179 89.1324L62.2638 85.9392Z" fill="#FFE19C"/>
<path d="M66.8502 105.376C66.8502 105.376 64.0706 102.322 65.0435 99.4062C66.0163 96.4907 68.9349 95.5189 68.9349 95.5189L75.745 96.4907C75.745 96.4907 72.5484 101.072 73.9382 106.209L66.8502 105.376Z" fill="#FFE19C"/>
<path d="M69.7688 138.697C69.7688 138.697 67.5451 136.198 68.379 133.838C69.2129 131.477 71.5756 130.644 71.5756 130.644L77.1348 131.477C77.1348 131.477 74.4942 135.226 75.745 139.53L69.7688 138.697Z" fill="#FFE19C"/>
<path d="M66.8498 122.453C66.8498 122.453 64.2092 119.399 65.182 116.761C66.1549 113.984 68.9345 113.012 68.9345 113.012L75.4666 113.984C75.4666 113.984 72.409 118.427 73.7988 123.425L66.8498 122.453Z" fill="#FFE19C"/>
<path d="M178.034 40.4012C178.312 40.54 178.451 40.6788 178.729 40.6788L188.18 34.7089L190.681 33.0429C190.959 32.7652 190.959 32.3487 190.542 32.071C190.126 31.7933 189.57 31.7933 189.292 31.9322L183.315 35.9584L187.346 31.0992C187.624 30.6827 187.485 30.1273 186.79 29.8497C186.234 29.572 185.4 29.572 185.122 29.9885L181.787 33.8759L183.038 29.572C183.176 28.8778 182.621 28.0448 181.648 27.7671C180.675 27.4894 179.702 27.7671 179.424 28.4613L178.173 32.7652L177.478 27.6283C177.478 27.0729 176.783 26.6564 176.088 26.6564C175.394 26.6564 174.838 26.9341 174.977 27.4894L175.811 33.737L172.892 27.2118C172.753 26.7953 172.197 26.6564 171.78 26.6564C171.363 26.6564 171.085 27.0729 171.224 27.3506L174.56 34.9866L176.644 39.8458C176.922 40.1235 177.478 40.4012 178.034 40.4012Z" fill="#697823"/>
<path d="M170.251 85.9392C169 88.2994 166.36 89.4101 163.858 88.7159C161.357 88.0217 159.689 85.5227 159.967 82.8848C160.106 81.913 160.245 80.6635 160.245 79.4139C160.245 78.7198 160.384 78.1644 160.523 77.4702C160.523 77.3314 160.523 77.0537 160.523 76.9149C160.801 73.8605 161.218 70.2508 161.773 66.6411C161.912 65.9469 161.912 65.3915 162.051 64.6974C162.051 64.5585 162.051 64.2809 162.19 64.142C162.607 60.81 163.163 57.3391 163.858 53.8682C163.997 53.174 164.136 52.6187 164.275 51.9245C164.275 51.7857 164.414 51.508 164.414 51.3691C165.109 47.7594 165.943 44.4274 166.777 41.373C166.916 40.6788 167.194 40.1235 167.333 39.4293C167.333 39.2905 167.472 39.0128 167.472 38.8739C167.75 38.1798 167.889 37.4856 168.167 36.9302C168.723 35.5419 170.251 34.7089 171.78 34.9866L179.146 36.7914C179.285 36.7914 179.285 36.7914 179.424 36.9302L186.651 39.4293C188.041 39.9846 189.014 41.373 188.597 42.9002C185.539 55.3954 174.838 77.0537 170.251 85.9392Z" fill="#FF9242"/>
<path d="M186.512 39.1516L181.37 37.3468C178.451 50.1196 167.889 71.3615 163.302 80.247C162.607 81.6353 161.357 82.6072 159.967 83.0237C159.828 85.6615 161.357 88.0218 163.858 88.7159C166.36 89.4101 169.139 88.2994 170.251 85.9392C174.838 77.0537 185.539 55.5342 188.319 42.7614C188.736 41.2342 187.902 39.707 186.512 39.1516Z" fill="#C26D2F"/>
<path d="M184.288 45.2604C184.149 45.5381 184.01 45.6769 183.871 45.8157C183.593 45.9546 183.315 45.9546 183.176 45.9546L166.638 41.0953C166.777 40.4012 167.055 39.8458 167.194 39.1516L183.732 44.0109C184.149 44.1497 184.427 44.7051 184.288 45.2604Z" fill="#C26D2F"/>
<path d="M183.871 43.7332C183.871 43.872 183.593 44.0109 183.454 43.872L167.055 39.1516C167.055 39.0128 167.194 38.7351 167.194 38.5963L183.454 43.3167C183.871 43.4555 183.871 43.5944 183.871 43.7332Z" fill="#FFB178"/>
<path d="M179.841 57.3391C179.702 57.6168 179.563 57.7556 179.424 57.8944C179.146 58.0333 178.868 58.0333 178.729 58.0333L163.858 53.7294C163.997 53.0352 164.136 52.4799 164.275 51.7857L179.285 56.2284C179.702 56.2284 179.98 56.7838 179.841 57.3391Z" fill="#C26D2F"/>
<path d="M179.424 55.8119C179.424 55.9507 179.146 56.0896 179.007 55.9507L164.136 51.6468C164.136 51.508 164.275 51.2303 164.275 51.0915L179.285 55.5342C179.424 55.5342 179.424 55.6731 179.424 55.8119Z" fill="#FFB178"/>
<path d="M174.56 69.1401C174.421 69.4178 174.282 69.5566 174.143 69.6954C173.865 69.8343 173.587 69.8343 173.448 69.8343L161.913 66.5022C162.052 65.8081 162.052 65.2527 162.191 64.5585L174.143 68.0294C174.421 68.0294 174.838 68.5848 174.56 69.1401Z" fill="#C26D2F"/>
<path d="M174.143 67.6129C174.143 67.7518 173.865 67.8906 173.726 67.7518L162.051 64.2809C162.051 64.142 162.051 63.8644 162.19 63.7255L174.004 67.1964C174.143 67.3352 174.143 67.4741 174.143 67.6129Z" fill="#FFB178"/>
<path d="M168.862 80.8023C168.723 81.08 168.584 81.2188 168.445 81.3576C168.167 81.4965 167.889 81.4965 167.75 81.4965L160.384 79.4139C160.384 78.7198 160.523 78.1644 160.662 77.4702L168.306 79.6916C168.723 79.6916 169.001 80.247 168.862 80.8023Z" fill="#C26D2F"/>
<path d="M168.306 79.4139C168.306 79.5528 168.028 79.6916 167.889 79.5528L160.384 77.3314C160.384 77.1926 160.384 76.9149 160.384 76.7761L168.028 78.9974C168.306 78.9974 168.445 79.1363 168.306 79.4139Z" fill="#FFB178"/>
<path d="M195.129 57.4779C195.268 57.7556 195.407 57.8944 195.685 58.0333L206.664 55.9507L209.722 55.2565C210.139 55.1177 210.278 54.84 210 54.4235C209.722 54.007 209.305 53.7294 208.888 53.8682L201.939 55.3954L207.498 52.341C207.915 52.0633 207.915 51.508 207.498 50.9526C207.081 50.3973 206.247 50.2585 205.83 50.3973L201.383 52.8963L204.163 49.2866C204.579 48.7313 204.301 47.7594 203.468 47.0653C202.634 46.3711 201.661 46.3711 201.244 46.9264L198.464 50.5361L199.715 45.5381C199.854 44.9827 199.437 44.4274 198.742 44.0109C198.047 43.7332 197.491 43.872 197.352 44.4274L195.824 50.5361L195.546 43.4555C195.546 43.039 195.129 42.6225 194.712 42.4837C194.295 42.3448 193.878 42.6225 193.878 42.9002L194.156 51.2303L194.295 56.5061C194.295 56.9226 194.573 57.3391 195.129 57.4779Z" fill="#697823"/>
<path d="M171.363 97.0461C169.417 98.8509 166.499 98.8509 164.414 97.3237C162.329 95.6577 161.634 92.881 162.885 90.5208C163.302 89.5489 163.858 88.5771 164.553 87.3276C164.831 86.7722 165.109 86.2169 165.526 85.5227C165.665 85.3839 165.665 85.1062 165.804 84.9674C167.194 82.1907 168.861 79.1363 170.807 75.8042C171.085 75.2489 171.502 74.6935 171.78 74.1382C171.919 73.9994 171.919 73.7217 172.058 73.5828C173.726 70.6673 175.532 67.6129 177.339 64.6974C177.756 64.142 178.034 63.5867 178.451 63.0313C178.59 62.8925 178.729 62.7537 178.729 62.476C180.675 59.4216 182.62 56.5061 184.566 54.007C184.983 53.4517 185.4 52.8963 185.817 52.4798C185.956 52.341 186.095 52.2022 186.234 52.0633C186.651 51.508 187.068 50.9527 187.624 50.5361C188.597 49.4255 190.403 49.1478 191.654 50.1196L197.908 54.5624C198.047 54.5624 198.047 54.7012 198.047 54.7012L203.884 59.5605C204.996 60.5323 205.274 62.3372 204.44 63.5867C196.657 74.277 178.868 90.382 171.363 97.0461Z" fill="#FF9242"/>
<path d="M203.467 59.4216L197.63 54.5624L197.491 54.4235L191.237 49.9808C190.82 49.7031 190.403 49.5643 189.847 49.4254L191.098 50.3973C191.237 50.3973 191.237 50.5361 191.237 50.5361L197.074 55.3954C198.186 56.3672 198.464 58.1721 197.63 59.4216C190.264 70.2508 172.475 86.4945 164.97 93.0198C164.136 93.714 163.302 94.1305 162.329 94.2693C162.607 95.38 163.302 96.4907 164.275 97.1849C166.36 98.8509 169.278 98.7121 171.224 96.9072C178.729 90.2431 196.518 74.1382 203.884 63.309C204.857 62.0595 204.579 60.3935 203.467 59.4216Z" fill="#C26D2F"/>
<path d="M199.159 64.2809C199.02 64.5585 198.742 64.5585 198.464 64.6974C198.186 64.6974 197.909 64.6974 197.77 64.5585L184.149 54.007C184.566 53.4517 184.983 52.8963 185.4 52.4798L199.02 63.0313C199.437 63.1702 199.576 63.8643 199.159 64.2809Z" fill="#C26D2F"/>
<path d="M199.298 62.7537C199.159 62.8925 199.02 62.8925 198.881 62.7537L185.4 52.341C185.539 52.2022 185.678 52.0633 185.817 51.9245L199.298 62.3372C199.437 62.476 199.437 62.6148 199.298 62.7537Z" fill="#FFB178"/>
<path d="M190.681 73.8605C190.542 74.1382 190.264 74.1382 189.986 74.277C189.708 74.277 189.43 74.277 189.291 74.1382L177.061 64.6974C177.478 64.142 177.756 63.5867 178.173 63.0313L190.542 72.611C190.959 72.8887 190.959 73.444 190.681 73.8605Z" fill="#C26D2F"/>
<path d="M190.82 72.3333C190.681 72.4722 190.542 72.4722 190.403 72.3333L178.173 62.8925C178.312 62.7537 178.451 62.6148 178.451 62.3372L190.82 71.9168C190.82 72.0556 190.82 72.1945 190.82 72.3333Z" fill="#FFB178"/>
<path d="M181.509 83.0236C181.37 83.3013 181.092 83.3013 180.814 83.4402C180.536 83.4402 180.258 83.4402 180.119 83.3013L170.529 75.943C170.807 75.3877 171.224 74.8324 171.502 74.277L181.231 81.913C181.648 81.913 181.787 82.6071 181.509 83.0236Z" fill="#C26D2F"/>
<path d="M181.509 81.4965C181.37 81.6353 181.231 81.6353 181.092 81.4965L171.502 73.9993C171.641 73.8605 171.641 73.5828 171.78 73.444L181.509 80.9411C181.648 81.08 181.648 81.3576 181.509 81.4965Z" fill="#FFB178"/>
<path d="M171.78 91.7703C171.641 92.048 171.363 92.048 171.085 92.1868C170.807 92.1868 170.529 92.1868 170.39 92.048L164.414 87.3276C164.692 86.7722 164.97 86.2169 165.387 85.5227L171.78 90.382C172.058 90.6596 172.058 91.3538 171.78 91.7703Z" fill="#C26D2F"/>
<path d="M171.919 90.2431C171.78 90.3819 171.641 90.3819 171.502 90.2431L165.387 85.5227C165.526 85.3838 165.526 85.1062 165.665 84.9673L171.919 89.8266C171.919 89.8266 172.058 90.1043 171.919 90.2431Z" fill="#FFB178"/>
<path d="M18.2067 125.507C18.2067 125.507 34.8844 119.121 41.4165 132.727C47.9486 146.333 35.4403 151.47 44.891 159.522C54.3417 167.575 60.4568 170.351 52.6739 178.82C44.891 187.289 19.3185 189.649 7.9221 164.242C-1.94554 141.89 5.83739 130.783 18.2067 125.507Z" fill="#B83736"/>
<path d="M16.5388 121.62C16.5388 121.62 33.2165 115.234 39.7486 128.839C46.2807 142.445 33.7725 147.582 43.2232 155.635C52.6738 163.687 58.789 166.464 51.0061 174.933C43.2232 183.402 17.6507 185.762 6.25426 160.355C-3.75236 138.141 4.16955 127.035 16.5388 121.62Z" fill="white"/>
<path d="M18.6236 127.451C22.793 125.924 26.8234 124.535 30.9928 123.286C25.0167 120.787 17.9287 123.286 17.2337 123.425C12.3694 125.507 8.75592 128.423 6.53223 132.033C10.5627 130.505 14.5931 128.978 18.6236 127.451Z" fill="#B83736"/>
<path d="M37.6641 129.811C36.5523 127.451 35.0235 125.785 33.4947 124.674C28.0744 126.202 22.7932 128.006 17.5119 129.95C13.4815 131.477 9.45102 133.004 5.42058 134.671C4.03077 138.141 3.75281 142.306 4.44771 146.888C9.03408 144.25 13.4815 141.751 18.3458 139.53C23.905 137.031 29.7422 134.809 35.5794 133.004C36.5523 132.727 37.6641 132.31 38.637 132.033C38.498 131.477 38.22 130.922 37.9421 130.367C37.8031 130.228 37.8031 130.089 37.6641 129.811Z" fill="#B83736"/>
<path d="M8.33878 159.383C8.8947 160.633 9.58961 161.882 10.1455 162.993C11.1184 162.299 12.0913 161.743 13.0641 161.188C20.7081 156.329 28.769 152.441 37.2468 149.109C37.2468 147.166 37.8027 145.361 38.2197 143.556C39.0535 140.64 39.8874 137.725 39.0535 133.976C37.2468 134.532 35.44 135.087 33.6333 135.642C27.9351 137.586 22.2369 139.807 16.8166 142.445C12.7862 144.389 8.75572 146.749 4.86426 148.971C5.55916 152.164 6.67101 155.496 8.33878 159.106V159.383Z" fill="#B83736"/>
<path d="M46.4198 161.327C43.3622 162.576 40.3046 163.826 37.386 165.214C31.5488 167.852 25.8506 170.768 20.5693 174.377C25.1557 177.293 29.6031 178.404 32.7996 178.681C40.4436 179.376 46.6977 176.738 49.3384 173.822C52.6739 170.212 52.5349 168.546 51.979 167.158C51.1451 165.353 49.1994 163.409 46.4198 161.327Z" fill="#B83736"/>
<path d="M18.9016 173.128C20.2914 172.156 21.5422 171.323 22.932 170.49C29.8811 166.325 37.247 162.854 44.752 159.8C43.7791 158.967 42.6673 158.134 41.5554 157.162C39.8877 155.635 38.6368 154.246 37.9419 152.719C37.664 152.164 37.525 151.608 37.386 150.914C34.3284 152.164 31.2709 153.413 28.3523 154.802C22.3761 157.717 16.6779 161.049 11.1187 164.659C13.6203 168.408 16.2609 171.184 18.9016 173.128Z" fill="#B83736"/>
<path d="M18.6237 127.451C21.9593 126.34 25.1558 125.23 28.4914 124.119C23.766 123.008 18.7627 124.535 17.7898 124.952C14.1763 126.479 11.2577 128.562 9.31201 131.061C12.3696 129.811 15.4272 128.562 18.6237 127.451Z" fill="#F15454"/>
<path d="M36.135 130.505C34.8841 128.006 33.2164 126.34 31.4096 125.23C26.6843 126.618 21.9589 128.145 17.3726 129.95C14.037 131.2 10.7015 132.449 7.50492 133.837C7.36593 133.976 7.22695 134.254 7.22695 134.393C5.69816 137.725 5.28122 141.612 5.97613 146.055C10.0066 143.695 14.037 141.473 18.3454 139.53C23.9046 137.031 29.7418 134.809 35.579 133.004C36.135 132.866 36.5519 132.727 37.1078 132.588C36.9688 132.171 36.8299 131.616 36.5519 131.2C36.4129 130.922 36.2739 130.783 36.135 130.505Z" fill="#F15454"/>
<path d="M9.86759 158.689C10.4235 159.939 10.9794 161.049 11.6743 162.16C12.2303 161.882 12.6472 161.466 13.2031 161.188C20.4301 156.607 27.9351 152.858 35.718 149.804C35.579 147.582 36.2739 145.361 36.8299 143.417C37.6637 140.64 38.3586 138.003 37.6637 134.532C36.4129 134.948 35.1621 135.365 33.7723 135.781C28.0741 137.725 22.3759 139.946 16.9556 142.584C13.3421 144.389 9.86759 146.333 6.39307 148.276C7.08797 151.47 8.19982 154.941 9.86759 158.689Z" fill="#F15454"/>
<path d="M20.2914 172.156C21.1253 171.601 22.0982 171.045 22.932 170.49C29.3252 166.603 36.1352 163.409 43.0843 160.494C42.2504 159.8 41.4165 159.106 40.4436 158.273C38.6369 156.745 37.2471 155.079 36.5522 153.274C36.2742 152.719 36.1352 152.025 35.9962 151.47C33.4946 152.441 30.9929 153.552 28.4913 154.663C22.932 157.301 17.7898 160.355 12.6475 163.687C15.0101 167.575 17.6508 170.212 20.2914 172.156Z" fill="#F15454"/>
<path d="M44.7518 162.021C42.2502 162.993 39.7485 164.104 37.3859 165.214C32.1046 167.575 26.9623 170.351 21.959 173.406C26.1284 176.043 30.1589 176.876 33.0774 177.154C40.1655 177.848 45.8637 175.349 48.0874 172.85C51.145 169.518 50.589 168.408 50.4501 167.713C49.7551 166.186 47.5315 164.242 44.7518 162.021Z" fill="#F15454"/>
<path d="M22.7428 142.052C24.6368 141.212 25.5659 139.167 24.818 137.485C24.0701 135.803 21.9284 135.121 20.0344 135.962C18.1404 136.803 17.2113 138.847 17.9592 140.529C18.7071 142.211 20.8488 142.893 22.7428 142.052Z" fill="white"/>
<path d="M22.292 141.037C23.4846 140.508 24.0471 139.17 23.5485 138.049C23.0498 136.927 21.6789 136.448 20.4864 136.977C19.2939 137.506 18.7314 138.844 19.23 139.965C19.7286 141.086 21.0995 141.566 22.292 141.037Z" fill="#B83736"/>
<path d="M38.7759 36.2361L14.5932 93.0198C12.5085 97.7402 6.6713 99.1286 2.77984 95.9354C0.695129 94.1305 -0.277737 91.3538 0.139206 88.7159L1.11207 80.9411L1.80698 75.5266L2.08494 73.3052C2.22392 72.0557 2.50188 70.945 2.64086 69.6955C2.91882 67.7518 3.33576 65.9469 3.89169 64.142C4.44761 62.3372 5.00353 60.5323 5.69844 58.8663C6.39334 57.0614 7.08825 55.3954 7.92213 53.5905C8.75601 51.9245 9.5899 50.2585 10.5628 48.7313C11.5356 47.0653 12.5085 45.5381 13.7593 43.872C14.4542 42.9002 15.1491 41.9283 15.983 40.9565L17.3728 39.1516L20.8473 34.8477L25.7117 28.739C27.3794 26.6564 30.0201 25.4069 32.7997 25.6846C37.664 26.2399 40.7216 31.5157 38.7759 36.2361Z" fill="#E09347"/>
<path d="M36.4132 28.6001L7.50514 96.6296C7.36616 97.0461 7.22718 97.3237 6.94922 97.6014C10.0068 97.8791 13.2034 96.2131 14.5932 93.0198L38.7758 36.0973C40.1656 32.904 39.1928 29.4331 36.8301 27.3506C36.6911 27.906 36.5521 28.1836 36.4132 28.6001Z" fill="#C98440"/>
<path d="M1.11195 80.9411L0.833984 83.0237C2.9187 85.3839 4.72545 86.6334 5.55933 86.0781C6.94914 85.245 5.42035 80.247 2.08481 75.11C1.94583 74.9712 1.94583 74.8324 1.80685 74.6935L1.66787 75.5266L1.11195 80.9411ZM3.89156 64.142C7.08812 69.0013 10.5626 72.1945 11.8135 71.3615C13.2033 70.5285 11.6745 65.5304 8.33895 60.3935C7.64404 59.2828 6.94914 58.1721 6.11526 57.3391C5.97627 57.8944 5.69831 58.3109 5.55933 58.8663C5.00341 60.5323 4.44748 62.3372 3.89156 64.142ZM20.7082 34.8477L18.4845 37.4856C20.9862 40.54 23.3489 42.3449 24.4607 41.6507C25.7115 40.9565 24.7387 37.0691 22.237 32.7652L20.7082 34.8477ZM10.1457 49.2866C13.3423 54.1459 16.8168 57.3391 18.2066 56.5061C19.5964 55.6731 18.0676 50.675 14.7321 45.5381C14.3151 44.9827 14.0372 44.4274 13.6202 43.872C12.5084 45.3992 11.3965 47.0653 10.4237 48.5925C10.2847 48.8701 10.2847 49.1478 10.1457 49.2866Z" fill="#FFE19C"/>
<path d="M181.51 182.146C194.787 181.888 205.362 172.046 205.13 160.164C204.899 148.281 193.948 138.858 180.672 139.116C167.396 139.374 156.821 149.216 157.052 161.098C157.284 172.981 168.234 182.404 181.51 182.146Z" fill="#F15454"/>
<path d="M180.675 138.974C178.59 138.974 176.645 139.252 174.699 139.807C184.566 142.306 191.932 150.359 192.071 160.077C192.21 170.074 184.705 178.681 174.421 181.319C176.645 181.875 179.007 182.152 181.509 182.152C194.851 181.875 205.414 172.017 205.136 160.077C204.858 148.138 194.017 138.697 180.675 138.974Z" fill="#B83736"/>
<path d="M183.455 137.031L189.153 135.226C191.793 134.393 194.712 135.92 193.322 137.308L190.265 140.502C189.848 141.057 189.848 141.612 190.265 142.029L193.461 145.083C194.99 146.472 192.071 148.138 189.431 147.305L183.594 145.777C182.76 145.5 181.648 145.5 180.675 145.777L174.977 147.582C172.336 148.415 169.417 146.888 170.807 145.5L173.865 142.306C174.282 141.751 174.282 141.196 173.865 140.779L170.668 137.725C169.139 136.337 172.058 134.671 174.699 135.504L180.536 137.031C181.509 137.308 182.621 137.308 183.455 137.031Z" fill="#B5B545"/>
<path d="M168.445 159.661C170.44 159.661 172.058 158.045 172.058 156.051C172.058 154.058 170.44 152.441 168.445 152.441C166.449 152.441 164.831 154.058 164.831 156.051C164.831 158.045 166.449 159.661 168.445 159.661Z" fill="white"/>
</g>
<defs>
<clipPath id="clip0_103_688">
<rect width="210" height="217" fill="white"/>
</clipPath>
</defs>
</svg>
